<?xml version="1.0" encoding="UTF-8"?>
<svg version="1.1" xmlns="http://www.w3.org/2000/svg" width="615" height="618">
<path d="M0 0 C1.23916305 45.42644654 1.23916305 45.42644654 -6 65 C-6.58822876 66.74271788 -7.17413442 68.48622147 -7.7578125 70.23046875 C-16.16778879 94.47560713 -29.22900052 116.63025105 -46 136 C-46.70511719 136.81597656 -47.41023438 137.63195312 -48.13671875 138.47265625 C-71.81043092 165.29152946 -100.42744409 184.63608766 -134 197 C-134.64469238 197.24588867 -135.28938477 197.49177734 -135.95361328 197.74511719 C-187.65261556 217.4039187 -245.54402485 210.51178225 -295.06396484 188.37792969 C-332.48049745 170.81773428 -363.42371745 140.54634873 -384 105 C-384.38639648 104.33564941 -384.77279297 103.67129883 -385.17089844 102.98681641 C-401.96756191 73.72288932 -413.51449091 36.03334207 -411 2 C-409.13243738 0.13243738 -405.98216255 0.86666561 -403.49224091 0.8613348 C-402.80084182 0.85849258 -402.10944274 0.85565036 -401.39709216 0.85272202 C-399.05113407 0.84431692 -396.70522498 0.84310229 -394.35925293 0.84178162 C-392.67205801 0.8372202 -390.98486423 0.83222081 -389.29767179 0.82681805 C-384.63862056 0.81317941 -379.97957665 0.8058021 -375.32051063 0.79939139 C-370.30477517 0.7914124 -365.28905511 0.77770603 -360.27333069 0.76467896 C-351.57545959 0.74288016 -342.87758696 0.7247481 -334.17970276 0.70907402 C-321.602779 0.68640459 -309.02587224 0.65825756 -296.44896287 0.62875474 C-276.04459602 0.58104019 -255.64022224 0.53778705 -235.23583984 0.49731445 C-215.4119411 0.45798378 -195.58804856 0.41656228 -175.76416016 0.37231445 C-174.54330709 0.36959018 -173.32245403 0.36686591 -172.06460541 0.36405908 C-165.94008196 0.35037965 -159.81555859 0.33665922 -153.69103527 0.32291877 C-115.34155703 0.23692362 -76.99207306 0.15413097 -38.64257812 0.07592773 C-37.17584919 0.07293606 -37.17584919 0.07293606 -35.67948937 0.06988394 C-29.33324205 0.05694779 -22.98699462 0.04406349 -16.64074707 0.03123474 C-15.83158071 0.02959837 -15.02241435 0.027962 -14.1887278 0.02627604 C-11.96173826 0.02177863 -9.73474868 0.0172973 -7.50775909 0.01282406 C-6.26623597 0.01032837 -5.02471284 0.00783268 -3.7455678 0.00526136 C-1 0 -1 0 0 0 Z " fill="#01494B" transform="translate(615,0)"/>
<path d="M0 0 C45.21642965 4.11058451 84.22291541 12.94263904 121 40 C121.61343262 40.44666016 122.22686523 40.89332031 122.85888672 41.35351562 C136.74962664 51.56451421 149.51652055 63.2973511 160 77 C161.31223549 78.58355256 162.62473646 80.16688516 163.9375 81.75 C182.70797427 105.42681606 195.41294647 133.55058186 202 163 C202.19464844 163.84884766 202.38929688 164.69769531 202.58984375 165.57226562 C208.61449742 193.03759854 208.43872161 223.64331088 202 251 C201.81276367 251.83289551 201.62552734 252.66579102 201.43261719 253.52392578 C190.77247628 300.27941425 164.14323307 343.0279012 125.60205078 371.79931641 C124.16833139 372.87384124 122.75277695 373.97250432 121.33984375 375.07421875 C86.44203721 401.6655922 43.4039466 414 0 414 C0 277.38 0 140.76 0 0 Z " fill="#00484A" transform="translate(0,0)"/>
<path d="M0 0 C0.85609863 0.04108887 1.71219727 0.08217773 2.59423828 0.12451172 C59.58846588 3.18388288 110.84164416 28.84093472 149 71 C166.89383766 92.04311474 180.0415356 115.92345075 189 142 C189.25120605 142.72364746 189.50241211 143.44729492 189.76123047 144.19287109 C196.50937727 164.03457684 199 185.13389684 199 206 C63.04 206 -72.92 206 -213 206 C-213 163.55973961 -202.42961404 122.69466722 -177 88 C-176.23171875 86.948125 -175.4634375 85.89625 -174.671875 84.8125 C-168.92470561 77.0859913 -162.65617629 69.95033413 -156 63 C-155.52836426 62.50113281 -155.05672852 62.00226563 -154.57080078 61.48828125 C-146.98143043 53.49027226 -138.86442027 46.54812734 -130 40 C-128.96230469 39.22914063 -127.92460938 38.45828125 -126.85546875 37.6640625 C-90.52186222 11.61355216 -44.72878909 -2.19709611 0 0 Z " fill="#00484A" transform="translate(213,412)"/>
<path d="M0 0 C0 135.63 0 271.26 0 411 C-38.46960298 411 -38.46960298 411 -54 406 C-55.76944717 405.4632644 -57.53898056 404.92681297 -59.30859375 404.390625 C-113.67146237 387.46075612 -157.22851386 349.85237504 -183.73754883 299.70800781 C-208.32219299 251.42396339 -212.02545841 194.49599996 -196 143 C-182.00701238 102.07285902 -156.99004597 65.71798353 -122 40 C-120.94039063 39.21882813 -119.88078125 38.43765625 -118.7890625 37.6328125 C-110.55175677 31.75483384 -101.95301019 26.70139114 -93 22 C-92.34580078 21.65582031 -91.69160156 21.31164062 -91.01757812 20.95703125 C-62.52958579 6.21894205 -31.87435513 0 0 0 Z " fill="#00484A" transform="translate(615,207)"/>
<path d="M0 0 C0.91855978 0.00223072 1.83711957 0.00446144 2.7835145 0.00675976 C3.75146527 0.00519977 4.71941604 0.00363978 5.71669865 0.00203252 C8.98650362 -0.00198198 12.25626283 0.0012139 15.52606821 0.00434887 C17.85953915 0.00299503 20.19300988 0.0012152 22.5264802 -0.00096118 C28.8837287 -0.00553756 35.24096106 -0.00374512 41.59820986 -0.0005821 C47.56315411 0.00168515 53.52809632 -0.00004094 59.49304062 -0.00150929 C72.027257 -0.00436418 84.56146607 -0.00107692 97.09568125 0.00429107 C107.86203134 0.00875912 118.62837066 0.00798319 129.39472055 0.00337231 C141.88259019 -0.0019733 154.37045343 -0.00408949 166.85832405 -0.00101542 C173.47420336 0.00054783 180.09007524 0.00073979 186.70595407 -0.00255191 C192.92417567 -0.00542936 199.14237681 -0.00345727 205.36059618 0.00234234 C207.65000801 0.00367062 209.93942155 0.00327469 212.22883272 0.00107968 C215.33977571 -0.00162918 218.450652 0.00174604 221.56159067 0.00675976 C222.48015046 0.00452904 223.39871024 0.00229832 224.34510517 0 C230.55840278 0.0195936 230.55840278 0.0195936 231.67255259 1.13374341 C232.71089507 32.19239943 219.81855695 61.32312515 198.86908579 83.79072583 C179.21322861 104.44198656 151.79758829 119.13557728 122.82904673 120.24238598 C88.17079975 120.89865919 56.40710144 113.47595523 30.66986704 89.01826489 C29.33462883 87.726312 28.00343195 86.43018602 26.67255259 85.13374341 C26.04220102 84.57686841 25.41184946 84.01999341 24.76239634 83.44624341 C4.37390007 64.93753757 -5.86731835 34.54988722 -7.53838491 7.75093091 C-7.57744741 5.00874341 -7.57744741 5.00874341 -7.32744741 1.13374341 C-5.40991016 -0.78379384 -2.5521192 0.00804809 0 0 Z " fill="#00494B" transform="translate(211.3274474143982,249.8662565946579)"/>
<path d="M0 0 C0.99 0.33 1.98 0.66 3 1 C2.38125 1.2475 1.7625 1.495 1.125 1.75 C-1.10761904 2.79880348 -1.10761904 2.79880348 -1.86962891 4.79614258 C-4.2766704 9.48909366 -8.67196107 12.99815574 -12.375 16.6875 C-13.23867188 17.56728516 -14.10234375 18.44707031 -14.9921875 19.35351562 C-15.8275 20.18947266 -16.6628125 21.02542969 -17.5234375 21.88671875 C-18.6669165 23.03466919 -18.6669165 23.03466919 -19.83349609 24.20581055 C-21.98487382 25.98747326 -23.27087789 26.61460737 -26 27 C-21.92090131 21.24149633 -17.47093176 16.18750878 -12.4375 11.25 C-11.79103516 10.60417969 -11.14457031 9.95835937 -10.47851562 9.29296875 C-3.3733403 2.25284589 -3.3733403 2.25284589 0 0 Z " fill="#003E40" transform="translate(484,254)"/>
<path d="M0 0 C5.18482434 1.50813332 8.33727513 4.78347664 12.125 8.4375 C12.78008545 9.06132568 13.4351709 9.68515137 14.11010742 10.32788086 C16.08075185 12.21110121 18.04043314 14.1052662 20 16 C21.11838277 17.06521633 22.23686467 18.13032858 23.35546875 19.1953125 C24.34234744 20.14980084 25.32810086 21.1054546 26.3125 22.0625 C27.17488281 22.89910156 28.03726562 23.73570312 28.92578125 24.59765625 C31.00894525 27.01036031 32.02774254 28.98653904 33 32 C29.30463442 28.98337504 25.93322139 26.0387339 22.875 22.375 C19.64015605 18.56800678 16.10875402 15.18930721 12.4375 11.8125 C11.89528809 11.31347168 11.35307617 10.81444336 10.79443359 10.30029297 C8.11684844 7.85970535 5.40273934 5.49249143 2.59765625 3.19921875 C1.74042969 2.47347656 0.88320313 1.74773437 0 1 C0 0.67 0 0.34 0 0 Z " fill="#003638" transform="translate(331,456)"/>
<path d="M0 0 C0.33 0.66 0.66 1.32 1 2 C-9.76924476 3.93915661 -20.09446805 4.22256188 -31 4 C-31 3.67 -31 3.34 -31 3 C-26.77137996 2.49530384 -22.54202341 1.99706416 -18.3125 1.5 C-16.51522461 1.28537109 -16.51522461 1.28537109 -14.68164062 1.06640625 C-13.52470703 0.93105469 -12.36777344 0.79570312 -11.17578125 0.65625 C-10.11270752 0.53056641 -9.04963379 0.40488281 -7.9543457 0.27539062 C-5.27954584 0.02605799 -2.68391231 -0.05207267 0 0 Z " fill="#00383A" transform="translate(446,204)"/>
<path d="M0 0 C1.32 0.66 2.64 1.32 4 2 C3.01 2 2.02 2 1 2 C1.0721875 2.82242187 1.144375 3.64484375 1.21875 4.4921875 C1.78884409 11.34915248 2.1397758 18.11992439 2 25 C1.34 24.67 0.68 24.34 0 24 C-1.65730481 16.68284291 -1.38191911 8.44742273 -1 1 C-0.67 0.67 -0.34 0.34 0 0 Z " fill="#003C3E" transform="translate(205,1)"/>
<path d="M0 0 C0 4.94604127 -3.66484056 7.58864184 -7 11 C-10.27403138 14.06970141 -13.61286545 17.05585085 -17 20 C-17.99 19.67 -18.98 19.34 -20 19 C-19.48050781 18.55269531 -18.96101563 18.10539062 -18.42578125 17.64453125 C-14.4735718 14.21830901 -10.65374878 10.74743465 -7 7 C-5.73050087 5.72783386 -4.4596048 4.45706059 -3.1875 3.1875 C-2.58292969 2.58292969 -1.97835938 1.97835938 -1.35546875 1.35546875 C-0.68451172 0.68451172 -0.68451172 0.68451172 0 0 Z " fill="#003537" transform="translate(415,325)"/>
<path d="M0 0 C3.28099409 1.40103451 5.07414935 2.99346316 7.3125 5.75 C10.58296551 9.62925346 14.07255716 12.79392422 18 16 C17.01 16.33 16.02 16.66 15 17 C12.49195282 14.54976242 9.9949924 12.08852402 7.5 9.625 C6.78457031 8.92632812 6.06914062 8.22765625 5.33203125 7.5078125 C4.65527344 6.8375 3.97851562 6.1671875 3.28125 5.4765625 C2.65283203 4.85861816 2.02441406 4.24067383 1.37695312 3.60400391 C0 2 0 2 0 0 Z " fill="#003335" transform="translate(257,139)"/>
<path d="M0 0 C7.18216433 2.27435204 14.0758202 5.03584181 21 8 C21 8.66 21 9.32 21 10 C16.18080529 9.32512263 12.08116134 7.42034091 7.6875 5.4375 C6.94693359 5.10814453 6.20636719 4.77878906 5.44335938 4.43945312 C3.62688438 3.63082877 1.81316069 2.81602884 0 2 C0 1.34 0 0.68 0 0 Z " fill="#00383A" transform="translate(265,354)"/>
<path d="M0 0 C0 0.99 0 1.98 0 3 C-2.36320564 4.83408539 -4.6761251 6.45755623 -7.1875 8.0625 C-7.86103516 8.50916016 -8.53457031 8.95582031 -9.22851562 9.41601562 C-12.71443334 11.6912146 -16.0378056 13.6382361 -20 15 C-18.66958864 11.00876591 -17.01526026 10.62127176 -13.375 8.625 C-8.6777597 5.98490432 -4.30733425 3.23050069 0 0 Z " fill="#013638" transform="translate(120,373)"/>
<path d="M0 0 C0.66 0 1.32 0 2 0 C1.25403037 7.4596963 -0.36746129 14.68951218 -2 22 C-2.33 22 -2.66 22 -3 22 C-3.39363688 14.25847464 -1.94210433 7.47941368 0 0 Z " fill="#003134" transform="translate(416,361)"/>
<path d="M0 0 C0.33 0.99 0.66 1.98 1 3 C-3.29 7.29 -7.58 11.58 -12 16 C-12.33 15.01 -12.66 14.02 -13 13 C-12.319375 12.505 -11.63875 12.01 -10.9375 11.5 C-7.20762886 8.32564158 -4.16751394 4.7209774 -1 1 C-0.67 0.67 -0.34 0.34 0 0 Z " fill="#00393C" transform="translate(152,344)"/>
<path d="M0 0 C0.66 0 1.32 0 2 0 C3.5859375 1.609375 3.5859375 1.609375 5.375 3.75 C7.33757727 6.06903702 9.2588295 8.25219284 11.4375 10.375 C13 12 13 12 13 14 C9.16549144 12.45212498 6.97444301 10.06277254 4.25 7 C3.45078125 6.113125 2.6515625 5.22625 1.828125 4.3125 C0 2 0 2 0 0 Z " fill="#013B3C" transform="translate(460,547)"/>
<path d="M0 0 C12.66970387 7.29840547 12.66970387 7.29840547 18 11 C17.01 11.33 16.02 11.66 15 12 C12.49834419 10.66970774 10.22387294 9.31117009 7.875 7.75 C7.22917969 7.34136719 6.58335937 6.93273437 5.91796875 6.51171875 C1.1300014 3.39000419 1.1300014 3.39000419 0 0 Z " fill="#003233" transform="translate(290,168)"/>
<path d="M0 0 C0.33 0.99 0.66 1.98 1 3 C-0.36366396 5.18304556 -1.72631652 7.11662933 -3.3125 9.125 C-3.72951172 9.67542969 -4.14652344 10.22585938 -4.57617188 10.79296875 C-7.70192308 14.85096154 -7.70192308 14.85096154 -10 16 C-9.39509989 12.36231304 -7.87014002 10.27287475 -5.5625 7.4375 C-3.58872421 4.99397382 -1.74487653 2.61731479 0 0 Z " fill="#00383B" transform="translate(170,321)"/>
<path d="M0 0 C0.33 0 0.66 0 1 0 C1.2358396 5.77807024 0.86783046 10.51324804 -1 16 C-1.66 16 -2.32 16 -3 16 C-2.69177379 13.7077546 -2.37829126 11.41621545 -2.0625 9.125 C-1.88847656 7.84882812 -1.71445312 6.57265625 -1.53515625 5.2578125 C-1 2 -1 2 0 0 Z " fill="#023438" transform="translate(613,37)"/>
<path d="M0 0 C3.69876091 1.37287342 6.9514476 3.06355453 10.3125 5.125 C11.19550781 5.66382813 12.07851563 6.20265625 12.98828125 6.7578125 C13.65214844 7.16773438 14.31601562 7.57765625 15 8 C12 9 12 9 9.08203125 7.63671875 C8.00308594 6.99347656 6.92414062 6.35023438 5.8125 5.6875 C4.72582031 5.05199219 3.63914062 4.41648437 2.51953125 3.76171875 C1.68808594 3.18035156 0.85664063 2.59898437 0 2 C0 1.34 0 0.68 0 0 Z " fill="#053236" transform="translate(507,587)"/>
<path d="M0 0 C0.99 0.33 1.98 0.66 3 1 C2.09507812 1.79664063 2.09507812 1.79664063 1.171875 2.609375 C0.37265625 3.31578125 -0.4265625 4.0221875 -1.25 4.75 C-2.03890625 5.44609375 -2.8278125 6.1421875 -3.640625 6.859375 C-5.83011856 8.84586916 -7.92901285 10.89101308 -10 13 C-10 10 -10 10 -7.8125 7.51953125 C-6.884375 6.62621094 -5.95625 5.73289062 -5 4.8125 C-4.071875 3.91144531 -3.14375 3.01039063 -2.1875 2.08203125 C-1.1046875 1.05142578 -1.1046875 1.05142578 0 0 Z " fill="#003537" transform="translate(476,261)"/>
<path d="M0 0 C0 3 0 3 -2.1171875 5.48046875 C-3.02726563 6.37378906 -3.93734375 7.26710937 -4.875 8.1875 C-5.77992188 9.08855469 -6.68484375 9.98960937 -7.6171875 10.91796875 C-10 13 -10 13 -12 13 C-10.44997253 9.11602311 -7.99523379 6.97020381 -4.875 4.25 C-3.96492187 3.45078125 -3.05484375 2.6515625 -2.1171875 1.828125 C-1.06917969 0.92320312 -1.06917969 0.92320312 0 0 Z " fill="#003537" transform="translate(560,143)"/>
<path d="M0 0 C4.23431576 3.60700972 6.4692099 8.14586161 9 13 C5.6227555 11.60724746 4.12929695 10.17726069 2.25 7.0625 C1.82203125 6.37285156 1.3940625 5.68320312 0.953125 4.97265625 C0 3 0 3 0 0 Z " fill="#003536" transform="translate(442,522)"/>
<path d="M0 0 C4.92980953 2.00844092 8.09403383 5.64105074 11 10 C8 10 8 10 5.95703125 8.3203125 C5.24933594 7.59585937 4.54164063 6.87140625 3.8125 6.125 C2.73935547 5.04605469 2.73935547 5.04605469 1.64453125 3.9453125 C0 2 0 2 0 0 Z " fill="#00363A" transform="translate(234,329)"/>
<path d="M0 0 C5.27749285 0.53851968 9.25645564 1.77343836 14 4 C14 4.66 14 5.32 14 6 C12.41375765 5.57316761 10.8310902 5.13303842 9.25 4.6875 C8.36828125 4.44386719 7.4865625 4.20023437 6.578125 3.94921875 C3.94227495 2.97874669 2.14592674 1.78994356 0 0 Z " fill="#00393B" transform="translate(279,427)"/>
<path d="M0 0 C1.46300982 0.93018526 2.92025579 1.86944027 4.375 2.8125 C5.18710937 3.33457031 5.99921875 3.85664062 6.8359375 4.39453125 C9 6 9 6 11 9 C6.39860359 7.51131293 3.49772906 5.25370145 0 2 C0 1.34 0 0.68 0 0 Z " fill="#013133" transform="translate(489,574)"/>
<path d="M0 0 C0.66 0.33 1.32 0.66 2 1 C-0.31 4.3 -2.62 7.6 -5 11 C-5.33 10.01 -5.66 9.02 -6 8 C-4.78515625 5.95703125 -4.78515625 5.95703125 -3.0625 3.8125 C-2.49660156 3.09707031 -1.93070313 2.38164062 -1.34765625 1.64453125 C-0.90292969 1.10183594 -0.45820312 0.55914062 0 0 Z " fill="#003A3C" transform="translate(43,491)"/>
<path d="M0 0 C1.14926266 0.95421808 2.29430541 1.91352045 3.4375 2.875 C4.07558594 3.40867188 4.71367187 3.94234375 5.37109375 4.4921875 C7 6 7 6 8 8 C5.62051228 7.82374165 4.29774151 7.30280227 2.62109375 5.59765625 C1.37884514 4.09350908 0.18623944 2.54870149 -1 1 C-0.67 0.67 -0.34 0.34 0 0 Z " fill="#005D5F" transform="translate(141,57)"/>
<path d="M0 0 C0.99 0 1.98 0 3 0 C4.60546875 1.96875 4.60546875 1.96875 6.1875 4.5 C6.71730469 5.3353125 7.24710937 6.170625 7.79296875 7.03125 C8.19128906 7.6809375 8.58960938 8.330625 9 9 C5.78034336 7.63783758 4.18312565 6.27468847 2.25 3.375 C1.82203125 2.74335937 1.3940625 2.11171875 0.953125 1.4609375 C0.63859375 0.97882812 0.3240625 0.49671875 0 0 Z " fill="#003436" transform="translate(450,536)"/>
<path d="M0 0 C0 0.99 0 1.98 0 3 C-1.53125 4.38671875 -1.53125 4.38671875 -3.5 5.6875 C-4.47453125 6.34298828 -4.47453125 6.34298828 -5.46875 7.01171875 C-5.9740625 7.33785156 -6.479375 7.66398437 -7 8 C-7 7.01 -7 6.02 -7 5 C-5.46875 3.61328125 -5.46875 3.61328125 -3.5 2.3125 C-2.8503125 1.87550781 -2.200625 1.43851562 -1.53125 0.98828125 C-1.0259375 0.66214844 -0.520625 0.33601563 0 0 Z " fill="#003537" transform="translate(86,450)"/>
<path d="M0 0 C1.9955516 3.99110319 2.19546065 5.69986566 2 10 C1.01 10 0.02 10 -1 10 C-0.67 6.7 -0.34 3.4 0 0 Z " fill="#005557" transform="translate(2,580)"/>
<path d="M0 0 C2.96404505 2.80804268 5.44499019 5.18315774 7 9 C3.64564078 7.61198929 1.88709697 6.11371 0 3 C0 2.01 0 1.02 0 0 Z " fill="#003335" transform="translate(226,318)"/>
<path d="M0 0 C0.33 0.66 0.66 1.32 1 2 C-0.98 4.31 -2.96 6.62 -5 9 C-5.66 8.67 -6.32 8.34 -7 8 C-4.69 5.36 -2.38 2.72 0 0 Z " fill="#003739" transform="translate(572,129)"/>
<path d="M0 0 C3.87132028 0.57352893 6.08172796 2.48704352 9 5 C8.67 5.66 8.34 6.32 8 7 C6.66382648 6.02471263 5.3311249 5.04466681 4 4.0625 C3.2575 3.51722656 2.515 2.97195312 1.75 2.41015625 C1.1725 1.94480469 0.595 1.47945312 0 1 C0 0.67 0 0.34 0 0 Z " fill="#003B3D" transform="translate(118,40)"/>
<path d="M0 0 C2.66735273 2.48952921 4.55746343 4.63408134 6 8 C5.01 8 4.02 8 3 8 C0.89229241 5.11165997 0 3.61537605 0 0 Z " fill="#005152" transform="translate(374,500)"/>
</svg>
